<?xml version="1.0" encoding="UTF-8"?>
<svg id="Laag_1" data-name="Laag 1" xmlns="http://www.w3.org/2000/svg" viewBox="0 0 146.63 145.93">
  <defs>
    <style>
      .cls-1 {
        fill: #03357c;
      }
    </style>
  </defs>
  <path class="cls-1" d="M44.17,41.54c16.41,0,31.11,7.24,41.13,18.69,1.94-4.98,3.02-10.39,3.02-16.05C88.32,19.79,68.55.02,44.16.02S0,19.79,0,44.18c0,5.67,1.08,11.08,3.02,16.05,10.02-11.45,24.72-18.69,41.13-18.69h.02Z"/>
  <path class="cls-1" d="M105.09,44.17c0,16.41-7.24,31.11-18.69,41.13,4.98,1.94,10.39,3.02,16.05,3.02,24.39,0,44.16-19.77,44.16-44.16S126.84,0,102.45,0c-5.67,0-11.08,1.08-16.05,3.02,11.45,10.02,18.69,24.72,18.69,41.13v.02Z"/>
  <path class="cls-1" d="M102.46,104.39c-16.41,0-31.11-7.24-41.13-18.69-1.94,4.98-3.02,10.39-3.02,16.05,0,24.39,19.77,44.16,44.16,44.16s44.16-19.77,44.16-44.16c0-5.67-1.08-11.08-3.02-16.05-10.02,11.45-24.72,18.69-41.13,18.69h-.02Z"/>
  <path class="cls-1" d="M41.53,101.76c0-16.41,7.24-31.11,18.69-41.13-4.98-1.94-10.39-3.02-16.05-3.02C19.78,57.61.01,77.38.01,101.77s19.77,44.16,44.16,44.16c5.67,0,11.08-1.08,16.05-3.02-11.45-10.02-18.69-24.72-18.69-41.13v-.02Z"/>
</svg>