<?xml version="1.0" encoding="UTF-8"?>
<svg id="Laag_1" xmlns="http://www.w3.org/2000/svg" version="1.1" viewBox="0 0 816.89 145.93">
  <!-- Generator: Adobe Illustrator 29.8.4, SVG Export Plug-In . SVG Version: 2.1.1 Build 6)  -->
  <defs>
    <style>
      .st0 {
        fill: #03357c;
      }
    </style>
  </defs>
  <g>
    <path class="st0" d="M44.17,41.54c16.41,0,31.11,7.24,41.13,18.69,1.94-4.98,3.02-10.39,3.02-16.05C88.32,19.79,68.55.02,44.16.02S0,19.79,0,44.18c0,5.67,1.08,11.08,3.02,16.05,10.02-11.45,24.72-18.69,41.13-18.69h.02Z"/>
    <path class="st0" d="M105.09,44.17c0,16.41-7.24,31.11-18.69,41.13,4.98,1.94,10.39,3.02,16.05,3.02,24.39,0,44.16-19.77,44.16-44.16S126.84,0,102.45,0c-5.67,0-11.08,1.08-16.05,3.02,11.45,10.02,18.69,24.72,18.69,41.13v.02Z"/>
    <path class="st0" d="M102.46,104.39c-16.41,0-31.11-7.24-41.13-18.69-1.94,4.98-3.02,10.39-3.02,16.05,0,24.39,19.77,44.16,44.16,44.16s44.16-19.77,44.16-44.16c0-5.67-1.08-11.08-3.02-16.05-10.02,11.45-24.72,18.69-41.13,18.69h-.02Z"/>
    <path class="st0" d="M41.53,101.76c0-16.41,7.24-31.11,18.69-41.13-4.98-1.94-10.39-3.02-16.05-3.02C19.78,57.61.01,77.38.01,101.77s19.77,44.16,44.16,44.16c5.67,0,11.08-1.08,16.05-3.02-11.45-10.02-18.69-24.72-18.69-41.13v-.02Z"/>
  </g>
  <g>
    <path class="st0" d="M174.89,29.03h27.48c27.84,0,46.8,17.16,46.8,44.16s-18.96,44.16-46.8,44.16h-27.48V29.03h0ZM202.37,98.38c15.96,0,26.16-9,26.16-25.2s-10.2-25.2-26.16-25.2h-7.56v50.4h7.56Z"/>
    <path class="st0" d="M257.33,29.03h19.92v88.32h-19.92V29.03Z"/>
    <path class="st0" d="M285.29,73.18c0-27,19.32-45.96,45.96-45.96,13.92,0,26.04,4.8,35.52,15.84l-14.52,13.68c-4.92-6.6-12.6-10.68-21-10.68-15.36,0-25.56,11.28-25.56,27.24s10.92,27.24,25.56,27.24c12.36,0,20.76-7.32,22.44-17.52h-25.8v-17.52h47.04v7.68c0,27.36-17.16,45.96-43.68,45.96s-45.96-18.96-45.96-45.96h0Z"/>
    <path class="st0" d="M382.61,29.03h19.92v88.32h-19.92V29.03Z"/>
    <path class="st0" d="M408.05,29.03h20.4l13.8,56.88,16.32-56.88h18.84l16.92,57.24,13.32-57.24h19.92l-22.68,88.32h-19.68l-17.28-56.76-17.28,56.76h-19.68s-22.92-88.32-22.92-88.32Z"/>
    <path class="st0" d="M526.61,73.18c0-27,19.68-45.96,46.08-45.96s46.2,18.96,46.2,45.96-19.8,45.96-46.2,45.96-46.08-18.96-46.08-45.96ZM572.69,100.18c14.52,0,25.56-10.8,25.56-27s-11.04-27-25.56-27-25.44,10.8-25.44,27,10.92,27,25.44,27Z"/>
    <path class="st0" d="M646.85,82.78v34.56h-19.92V29.02h30c18.72,0,30.24,9.36,30.24,27.48,0,12.12-7.32,21.24-19.8,24.36l25.32,36.48h-24l-21.84-34.56ZM655.97,66.82c6.72,0,10.92-3.96,10.92-10.32s-4.2-10.32-10.92-10.32h-9.12v20.64h9.12Z"/>
    <path class="st0" d="M717.89,80.62v36.72h-19.92V29.02h19.92v34.2l24.12-33.48h23.4l-30.36,41.4,32.04,46.2h-24.24l-24.96-36.72h0Z"/>
    <path class="st0" d="M768.89,117.34v-18.72c7.92.72,12.12.96,15.12.96,8.88,0,12.72-2.28,12.72-7.56,0-3.36-1.56-6.12-7.56-10.08l-9.12-6.12c-8.88-6-13.44-13.68-13.44-23.16,0-15.48,11.28-24.84,30.12-24.84,4.2,0,8.64.48,13.56,1.2v17.76c-4.92-.72-9.48-1.2-12.96-1.2-7.2,0-10.8,2.16-10.8,6.48,0,3,1.68,5.4,6.6,8.64l7.68,5.04c11.16,7.32,16.08,15.36,16.08,26.04,0,17.04-11.76,26.76-32.4,26.76-3.36,0-8.04-.24-15.6-1.2h0Z"/>
  </g>
</svg>